<svg id="Capa_1" enable-background="new 0 0 513.18 513.18" height="512" viewBox="0 0 513.18 513.18" width="512" xmlns="http://www.w3.org/2000/svg"><path d="m513.18 432.803v73.877c0 2.76-2.24 5-5 5h-171.92l5.86-78.877c0-36.29 29.42-65.71 65.71-65.71h39.64c36.29 0 65.71 29.42 65.71 65.71z" fill="#ffb655"/><path d="m513.18 432.803v73.877c0 2.76-2.24 5-5 5h-83.46v-144.587h22.75c36.29 0 65.71 29.42 65.71 65.71z" fill="#ff9100"/><path d="m142.67 318.553c0 29.85-24.19 54.04-54.04 54.04s-54.05-24.19-54.05-54.04 24.2-54.05 54.05-54.05 54.04 24.2 54.04 54.05z" fill="#ffdfcf"/><path d="m142.67 318.553c0 29.85-24.19 54.04-54.04 54.04v-108.09c29.85 0 54.04 24.2 54.04 54.05z" fill="#ffcebf"/><path d="m177.26 511.68h-172.26c-2.76 0-5-2.24-5-5v-73.877c0-36.29 29.42-65.71 65.71-65.71h39.64c36.29 0 65.71 29.42 65.71 65.71z" fill="#00ccb3"/><path d="m177.26 511.68h-88.63v-144.587h16.72c36.29 0 65.71 29.42 65.71 65.71z" fill="#00b6bd"/><path d="m310.64 318.553c0 29.85-24.2 54.04-54.05 54.04s-54.05-24.19-54.05-54.04 24.2-54.05 54.05-54.05 54.05 24.2 54.05 54.05z" fill="#ffdfcf"/><path d="m310.64 318.553c0 29.85-24.2 54.04-54.05 54.04v-108.09c29.85 0 54.05 24.2 54.05 54.05z" fill="#ffcebf"/><path d="m342.12 432.803v78.877h-171.06v-78.877c0-36.29 29.42-65.71 65.71-65.71h39.64c36.29 0 65.71 29.42 65.71 65.71z" fill="#ff7c48"/><path d="m342.12 432.803v78.877h-85.53v-144.587h19.82c36.29 0 65.71 29.42 65.71 65.71z" fill="#ff415b"/><path d="m478.77 318.553c0 29.85-24.2 54.04-54.05 54.04s-54.05-24.19-54.05-54.04 24.2-54.05 54.05-54.05 54.05 24.2 54.05 54.05z" fill="#ffdfcf"/><path d="m478.77 318.553c0 29.85-24.2 54.04-54.05 54.04v-108.09c29.85 0 54.05 24.2 54.05 54.05z" fill="#ffcebf"/><path d="m511.59 6.5v116.97c0 2.76-2.24 5-5 5h-46.49c-1.52 0-2.96.69-3.9 1.87l-30.94 38.68c-1 1.25-2.45 1.88-3.91 1.88-1.45 0-2.9-.63-3.9-1.88l-30.94-38.68c-.95-1.18-2.39-1.87-3.91-1.87h-46.49c-2.76 0-5-2.24-5-5v-116.97c0-2.76 2.24-5 5-5h170.48c2.76 0 5 2.24 5 5z" fill="#ffb655"/><path d="m421.35 170.9v-169.4h85.24c2.76 0 5 2.24 5 5v116.97c0 2.76-2.24 5-5 5h-46.49c-1.52 0-2.96.69-3.9 1.87l-30.94 38.68c-1 1.25-2.45 1.88-3.91 1.88z" fill="#ff9100"/><path d="m457.35 66.84c0 8.29-6.71 15-15 15h-42c-8.28 0-15-6.71-15-15 0-8.28 6.72-15 15-15h42c8.29 0 15 6.72 15 15z" fill="#fff"/><path d="m457.35 66.84c0 8.29-6.71 15-15 15h-21v-30h21c8.29 0 15 6.72 15 15z" fill="#ebe1dc"/><path d="m182.07 6.5v116.97c0 2.76-2.24 5-5 5h-46.49c-1.52 0-2.96.69-3.91 1.87l-30.94 38.68c-1 1.25-2.45 1.88-3.9 1.88-1.46 0-2.91-.63-3.91-1.88l-30.94-38.68c-.94-1.18-2.38-1.87-3.9-1.87h-46.49c-2.76 0-5-2.24-5-5v-116.97c0-2.76 2.24-5 5-5h170.48c2.76 0 5 2.24 5 5z" fill="#00ccb3"/><path d="m182.07 6.5v116.97c0 2.76-2.24 5-5 5h-46.49c-1.52 0-2.96.69-3.91 1.87l-30.94 38.68c-1 1.25-2.45 1.88-3.9 1.88v-169.4h85.24c2.76 0 5 2.24 5 5z" fill="#00b6bd"/><path d="m127.83 66.84c0 8.29-6.72 15-15 15h-42c-8.29 0-15-6.71-15-15 0-8.28 6.71-15 15-15h42c8.28 0 15 6.72 15 15z" fill="#fff"/><path d="m127.83 66.84c0 8.29-6.72 15-15 15h-21v-30h21c8.28 0 15 6.72 15 15z" fill="#ebe1dc"/><path d="m346.83 63.16v116.97c0 2.76-2.24 5-5 5h-46.52c-1.5 0-2.93.68-3.88 1.84l-30.97 37.96c-1 1.23-2.43 1.84-3.87 1.84s-2.87-.61-3.87-1.84l-30.97-37.96c-.95-1.16-2.38-1.84-3.88-1.84h-46.52c-2.76 0-5-2.24-5-5v-116.97c0-2.76 2.24-5 5-5h170.48c2.76 0 5 2.24 5 5z" fill="#ff7c48"/><path d="m346.83 63.16v116.97c0 2.76-2.24 5-5 5h-46.52c-1.5 0-2.93.68-3.88 1.84l-30.97 37.96c-1 1.23-2.43 1.84-3.87 1.84v-168.61h85.24c2.76 0 5 2.24 5 5z" fill="#ff415b"/><path d="m302.05 122.09c0 8.29-6.72 15-15 15h-60.92c-8.28 0-15-6.71-15-15 0-8.28 6.72-15 15-15h60.92c8.28 0 15 6.72 15 15z" fill="#fff"/><path d="m302.05 122.09c0 8.29-6.72 15-15 15h-30.46v-30h30.46c8.28 0 15 6.72 15 15z" fill="#ebe1dc"/></svg>